<svg width="452" height="301" viewBox="0 0 452 301" fill="none" xmlns="http://www.w3.org/2000/svg">
<rect width="452" height="301" fill="#F5F5F5"/>
<path d="M315.371 29.2486C263.248 17.8017 242.657 305.347 145.168 311.757L143.238 313.132L142.594 314.505L141.951 316.795V320H483C393.555 292.527 367.494 40.6955 315.371 29.2486Z" fill="#1E3050"/>
<path d="M126.257 37.0281C132.046 30.1923 138.159 26.8818 144.791 28.3383C151.395 29.7885 157.561 35.0405 163.464 43.1138C169.368 51.1869 175.027 62.1074 180.618 74.946C191.799 100.616 202.75 134.061 214.847 167.949C217.245 174.665 219.688 181.399 222.187 188.095C212.476 215.202 201.71 241.373 189.123 262.547C172.701 290.174 153.211 309.247 128.962 310.842L128.894 310.846L128.833 310.89L126.826 312.319L126.778 312.42L126.116 313.834L126.104 313.878L125.461 316.167L125.437 316.249V320H-29V316.249L-28.9767 316.167L-28.3333 313.878L-28.3213 313.834L-27.659 312.42L-27.6118 312.319L-25.6047 310.89L-25.5438 310.846L-25.4759 310.842C-1.22661 309.247 18.2636 290.174 34.686 262.547C51.111 234.916 64.4389 198.777 76.3626 163.152C88.2774 127.552 98.7985 92.4395 109.593 66.9663C114.991 54.2267 120.474 43.8564 126.257 37.0281Z" fill="#1E3050"/>
<path d="M216.003 39.841C221.029 33.9068 226.341 31.028 232.107 32.2941C237.844 33.554 243.198 38.1157 248.321 45.1199C253.385 52.0447 258.239 61.3831 263.035 72.3519C254.596 93.7115 246.238 121.293 236.893 149.211C234.489 156.393 232.017 163.598 229.463 170.73C227.31 164.959 225.205 159.157 223.138 153.369C213.648 126.786 204.97 100.511 196.221 79.2612C197.994 74.5123 199.765 70.0112 201.544 65.812C206.226 54.7649 210.983 45.7675 216.003 39.841Z" fill="#1E3050"/>
</svg>
